<svg xmlns="http://www.w3.org/2000/svg" xmlns:xlink="http://www.w3.org/1999/xlink" width="1280" zoomAndPan="magnify" viewBox="0 0 960 959.999988" height="1280" preserveAspectRatio="xMidYMid meet" version="1.0"><defs><clipPath id="f9b0392565"><path d="M 96 63 L 864 63 L 864 897.359375 L 96 897.359375 Z M 96 63 " clip-rule="nonzero"/></clipPath></defs><g clip-path="url(#f9b0392565)"><path fill="#1b191f" d="M 479.996094 93.984375 L 821.617188 296.859375 L 653.261719 396.839844 C 622.140625 332.46875 556.171875 287.953125 479.996094 287.953125 C 403.828125 287.953125 337.859375 332.46875 306.730469 396.839844 L 138.382812 296.859375 Z M 835.234375 662.027344 L 494.210938 858.507812 L 494.210938 672.019531 C 593.644531 664.714844 672.320312 581.535156 672.320312 480.277344 C 672.320312 460.570312 669.339844 441.554688 663.804688 423.632812 L 835.234375 321.828125 Z M 316.089844 480.277344 C 316.089844 389.898438 389.621094 316.378906 479.996094 316.378906 C 570.378906 316.378906 643.902344 389.898438 643.902344 480.277344 C 643.902344 570.652344 570.378906 644.175781 479.996094 644.175781 C 389.621094 644.175781 316.089844 570.652344 316.089844 480.277344 Z M 465.789062 858.507812 L 124.765625 662.027344 L 124.765625 321.828125 L 296.191406 423.632812 C 290.664062 441.554688 287.671875 460.570312 287.671875 480.277344 C 287.671875 581.535156 366.355469 664.714844 465.789062 672.019531 Z M 103.460938 682.550781 L 472.90625 895.410156 C 473.1875 895.570312 473.492188 895.695312 473.789062 895.84375 C 474.054688 895.976562 474.316406 896.125 474.589844 896.238281 C 474.84375 896.339844 475.105469 896.410156 475.363281 896.492188 C 475.691406 896.613281 476.015625 896.738281 476.351562 896.828125 C 476.632812 896.902344 476.917969 896.9375 477.195312 896.996094 C 477.519531 897.0625 477.839844 897.144531 478.164062 897.1875 C 478.773438 897.269531 479.390625 897.304688 479.996094 897.304688 C 480.613281 897.304688 481.222656 897.269531 481.835938 897.1875 L 482.550781 897.046875 C 482.914062 896.980469 483.285156 896.925781 483.644531 896.828125 C 483.941406 896.75 484.21875 896.636719 484.511719 896.539062 C 484.8125 896.4375 485.113281 896.359375 485.410156 896.238281 C 485.671875 896.128906 485.921875 895.980469 486.179688 895.855469 C 486.484375 895.707031 486.800781 895.582031 487.097656 895.410156 L 856.539062 682.550781 C 860.949219 680.015625 863.65625 675.324219 863.65625 670.238281 L 863.65625 296.859375 C 863.65625 296.226562 863.613281 295.601562 863.53125 294.988281 L 863.40625 294.371094 C 863.339844 293.960938 863.269531 293.554688 863.167969 293.167969 L 862.929688 292.46875 C 862.8125 292.121094 862.710938 291.761719 862.574219 291.421875 L 862.226562 290.714844 C 862.070312 290.398438 861.933594 290.082031 861.757812 289.773438 L 861.3125 289.097656 C 861.132812 288.808594 860.949219 288.519531 860.75 288.25 L 860.195312 287.609375 L 859.53125 286.863281 L 858.878906 286.28125 C 858.644531 286.0625 858.402344 285.832031 858.152344 285.632812 L 857.394531 285.113281 L 856.703125 284.644531 L 487.257812 65.242188 C 482.78125 62.582031 477.21875 62.582031 472.738281 65.242188 L 103.296875 284.644531 L 102.609375 285.113281 L 101.851562 285.632812 C 101.59375 285.832031 101.359375 286.0625 101.117188 286.28125 L 100.464844 286.863281 L 99.808594 287.609375 L 99.253906 288.25 C 99.050781 288.519531 98.875 288.808594 98.691406 289.097656 L 98.242188 289.773438 C 98.066406 290.082031 97.925781 290.398438 97.773438 290.714844 L 97.425781 291.421875 C 97.285156 291.761719 97.183594 292.121094 97.070312 292.46875 L 96.835938 293.167969 C 96.726562 293.554688 96.664062 293.960938 96.589844 294.371094 L 96.46875 294.988281 C 96.382812 295.601562 96.34375 296.226562 96.34375 296.859375 L 96.34375 670.238281 C 96.34375 675.324219 99.054688 680.015625 103.460938 682.550781 " fill-opacity="1" fill-rule="nonzero"/></g></svg>